<svg xmlns="http://www.w3.org/2000/svg" width="404.37" height="35" viewBox="0 0 404.37 35"><rect class="svg__rect" x="0" y="0" width="168.17" height="35" fill="#8D018F"/><rect class="svg__rect" x="166.17" y="0" width="238.2" height="35" fill="#000000"/><path class="svg__text" d="M15.69 22L14.22 22L14.22 13.47L16.14 13.47L18.60 20.01L21.06 13.47L22.97 13.47L22.97 22L21.49 22L21.49 19.19L21.64 15.43L19.12 22L18.06 22L15.55 15.43L15.69 19.19L15.69 22ZM29.75 18.86L26.89 13.47L28.53 13.47L30.49 17.51L32.46 13.47L34.10 13.47L31.24 18.86L31.24 22L29.75 22L29.75 18.86ZM47.10 22L43.99 22L43.99 13.47L46.91 13.47Q48.36 13.47 49.12 14.05Q49.87 14.63 49.87 15.78L49.87 15.78Q49.87 16.36 49.56 16.83Q49.24 17.30 48.63 17.56L48.63 17.56Q49.32 17.75 49.70 18.26Q50.08 18.78 50.08 19.51L50.08 19.51Q50.08 20.71 49.31 21.36Q48.54 22 47.10 22L47.10 22ZM45.47 18.15L45.47 20.82L47.12 20.82Q47.81 20.82 48.21 20.47Q48.60 20.13 48.60 19.51L48.60 19.51Q48.60 18.18 47.24 18.15L47.24 18.15L45.47 18.15ZM45.47 14.66L45.47 17.06L46.92 17.06Q47.62 17.06 48.01 16.75Q48.39 16.43 48.39 15.86L48.39 15.86Q48.39 15.23 48.03 14.95Q47.67 14.66 46.91 14.66L46.91 14.66L45.47 14.66ZM60.13 22L54.55 22L54.55 13.47L60.08 13.47L60.08 14.66L56.03 14.66L56.03 17.02L59.53 17.02L59.53 18.19L56.03 18.19L56.03 20.82L60.13 20.82L60.13 22ZM63.89 19.42L63.89 19.42L65.37 19.42Q65.37 20.15 65.85 20.55Q66.33 20.95 67.23 20.95L67.23 20.95Q68.00 20.95 68.39 20.63Q68.78 20.32 68.78 19.80L68.78 19.80Q68.78 19.24 68.38 18.94Q67.99 18.63 66.96 18.32Q65.93 18.01 65.32 17.63L65.32 17.63Q64.15 16.90 64.15 15.72L64.15 15.72Q64.15 14.69 64.99 14.02Q65.83 13.35 67.17 13.35L67.17 13.35Q68.06 13.35 68.76 13.68Q69.46 14.01 69.86 14.61Q70.26 15.22 70.26 15.96L70.26 15.96L68.78 15.96Q68.78 15.29 68.36 14.91Q67.94 14.54 67.16 14.54L67.16 14.54Q66.44 14.54 66.03 14.85Q65.63 15.16 65.63 15.71L65.63 15.71Q65.63 16.18 66.07 16.50Q66.50 16.81 67.50 17.10Q68.49 17.40 69.10 17.78Q69.70 18.16 69.98 18.65Q70.26 19.13 70.26 19.79L70.26 19.79Q70.26 20.86 69.44 21.49Q68.63 22.12 67.23 22.12L67.23 22.12Q66.30 22.12 65.52 21.77Q64.75 21.43 64.32 20.83Q63.89 20.22 63.89 19.42ZM76.23 14.66L73.60 14.66L73.60 13.47L80.36 13.47L80.36 14.66L77.70 14.66L77.70 22L76.23 22L76.23 14.66ZM91.58 22L90.10 22L90.10 13.47L93.36 13.47Q94.79 13.47 95.63 14.21Q96.47 14.96 96.47 16.18L96.47 16.18Q96.47 17.44 95.65 18.13Q94.82 18.83 93.34 18.83L93.34 18.83L91.58 18.83L91.58 22ZM91.58 14.66L91.58 17.64L93.36 17.64Q94.15 17.64 94.57 17.27Q94.98 16.90 94.98 16.19L94.98 16.19Q94.98 15.50 94.56 15.09Q94.14 14.68 93.40 14.66L93.40 14.66L91.58 14.66ZM102.32 22L100.84 22L100.84 13.47L102.32 13.47L102.32 22ZM106.86 18.19L106.86 18.19L106.86 17.39Q106.86 16.19 107.29 15.27Q107.72 14.35 108.52 13.85Q109.31 13.35 110.36 13.35L110.36 13.35Q111.78 13.35 112.64 14.12Q113.50 14.89 113.64 16.29L113.64 16.29L112.16 16.29Q112.06 15.37 111.63 14.96Q111.20 14.55 110.36 14.55L110.36 14.55Q109.40 14.55 108.88 15.26Q108.36 15.96 108.35 17.33L108.35 17.33L108.35 18.09Q108.35 19.47 108.84 20.20Q109.34 20.92 110.29 20.92L110.29 20.92Q111.17 20.92 111.61 20.53Q112.05 20.14 112.16 19.22L112.16 19.22L113.64 19.22Q113.51 20.59 112.63 21.35Q111.75 22.12 110.29 22.12L110.29 22.12Q109.27 22.12 108.50 21.63Q107.72 21.15 107.30 20.26Q106.88 19.37 106.86 18.19ZM119.63 14.66L117.00 14.66L117.00 13.47L123.76 13.47L123.76 14.66L121.10 14.66L121.10 22L119.63 22L119.63 14.66ZM127.39 19.16L127.39 19.16L127.39 13.47L128.86 13.47L128.86 19.18Q128.86 20.03 129.30 20.48Q129.73 20.93 130.57 20.93L130.57 20.93Q132.28 20.93 132.28 19.13L132.28 19.13L132.28 13.47L133.76 13.47L133.76 19.17Q133.76 20.53 132.89 21.32Q132.02 22.12 130.57 22.12L130.57 22.12Q129.11 22.12 128.25 21.33Q127.39 20.55 127.39 19.16ZM139.81 22L138.33 22L138.33 13.47L141.33 13.47Q142.81 13.47 143.61 14.13Q144.41 14.79 144.41 16.05L144.41 16.05Q144.41 16.90 144.00 17.48Q143.59 18.06 142.85 18.37L142.85 18.37L144.76 21.92L144.76 22L143.18 22L141.47 18.71L139.81 18.71L139.81 22ZM139.81 14.66L139.81 17.52L141.34 17.52Q142.09 17.52 142.51 17.15Q142.93 16.77 142.93 16.11L142.93 16.11Q142.93 15.43 142.54 15.05Q142.15 14.68 141.38 14.66L141.38 14.66L139.81 14.66ZM154.39 22L148.81 22L148.81 13.47L154.34 13.47L154.34 14.66L150.29 14.66L150.29 17.02L153.79 17.02L153.79 18.19L150.29 18.19L150.29 20.82L154.39 20.82L154.39 22Z" fill="#000000"/><path class="svg__text" d="M179.93 17.80L179.93 17.80Q179.93 16.55 180.53 15.55Q181.14 14.56 182.20 14.00Q183.26 13.43 184.59 13.43L184.59 13.43Q185.92 13.43 186.99 14.00Q188.05 14.56 188.66 15.55Q189.26 16.55 189.26 17.80L189.26 17.80Q189.26 19.05 188.66 20.04Q188.05 21.04 186.99 21.60Q185.93 22.17 184.59 22.17L184.59 22.17Q183.26 22.17 182.20 21.60Q181.14 21.04 180.53 20.04Q179.93 19.05 179.93 17.80ZM182.33 17.80L182.33 17.80Q182.33 18.51 182.63 19.05Q182.93 19.60 183.45 19.90Q183.96 20.20 184.59 20.20L184.59 20.20Q185.23 20.20 185.75 19.90Q186.26 19.60 186.56 19.05Q186.86 18.51 186.86 17.80L186.86 17.80Q186.86 17.09 186.56 16.54Q186.26 16 185.75 15.70Q185.23 15.40 184.59 15.40L184.59 15.40Q183.96 15.40 183.44 15.70Q182.93 16 182.63 16.54Q182.33 17.09 182.33 17.80ZM196.37 22L193.99 22L193.99 13.60L200.58 13.60L200.58 15.44L196.37 15.44L196.37 17.28L200.08 17.28L200.08 19.12L196.37 19.12L196.37 22ZM213.94 15.48L211.36 15.48L211.36 13.60L218.88 13.60L218.88 15.48L216.32 15.48L216.32 22L213.94 22L213.94 15.48ZM225.63 22L223.25 22L223.25 13.60L225.63 13.60L225.63 16.76L228.87 16.76L228.87 13.60L231.25 13.60L231.25 22L228.87 22L228.87 18.72L225.63 18.72L225.63 22ZM243.15 22L236.41 22L236.41 13.60L243.00 13.60L243.00 15.44L238.76 15.44L238.76 16.85L242.50 16.85L242.50 18.63L238.76 18.63L238.76 20.17L243.15 20.17L243.15 22ZM254.50 17.80L254.50 17.80Q254.50 16.55 255.11 15.55Q255.71 14.56 256.77 14.00Q257.84 13.43 259.17 13.43L259.17 13.43Q260.50 13.43 261.56 14.00Q262.62 14.56 263.23 15.55Q263.84 16.55 263.84 17.80L263.84 17.80Q263.84 19.05 263.23 20.04Q262.62 21.04 261.56 21.60Q260.50 22.17 259.17 22.17L259.17 22.17Q257.84 22.17 256.77 21.60Q255.71 21.04 255.11 20.04Q254.50 19.05 254.50 17.80ZM256.90 17.80L256.90 17.80Q256.90 18.51 257.20 19.05Q257.50 19.60 258.02 19.90Q258.53 20.20 259.17 20.20L259.17 20.20Q259.81 20.20 260.32 19.90Q260.84 19.60 261.14 19.05Q261.43 18.51 261.43 17.80L261.43 17.80Q261.43 17.09 261.14 16.54Q260.84 16 260.32 15.70Q259.81 15.40 259.17 15.40L259.17 15.40Q258.53 15.40 258.02 15.70Q257.50 16 257.20 16.54Q256.90 17.09 256.90 17.80ZM270.94 22L268.56 22L268.56 13.60L272.41 13.60Q273.55 13.60 274.39 13.98Q275.23 14.35 275.68 15.06Q276.14 15.76 276.14 16.71L276.14 16.71Q276.14 17.62 275.71 18.30Q275.29 18.98 274.49 19.36L274.49 19.36L276.31 22L273.76 22L272.24 19.77L270.94 19.77L270.94 22ZM270.94 15.47L270.94 17.93L272.26 17.93Q272.99 17.93 273.37 17.61Q273.74 17.29 273.74 16.71L273.74 16.71Q273.74 16.12 273.37 15.79Q272.99 15.47 272.26 15.47L272.26 15.47L270.94 15.47ZM283.31 22L280.93 22L280.93 13.60L283.31 13.60L283.31 22ZM288.05 17.80L288.05 17.80Q288.05 16.55 288.66 15.55Q289.26 14.56 290.32 14.00Q291.39 13.43 292.72 13.43L292.72 13.43Q294.05 13.43 295.11 14.00Q296.17 14.56 296.78 15.55Q297.39 16.55 297.39 17.80L297.39 17.80Q297.39 19.05 296.78 20.04Q296.17 21.04 295.11 21.60Q294.05 22.17 292.72 22.17L292.72 22.17Q291.39 22.17 290.32 21.60Q289.26 21.04 288.66 20.04Q288.05 19.05 288.05 17.80ZM290.45 17.80L290.45 17.80Q290.45 18.51 290.75 19.05Q291.05 19.60 291.57 19.90Q292.08 20.20 292.72 20.20L292.72 20.20Q293.36 20.20 293.87 19.90Q294.39 19.60 294.69 19.05Q294.98 18.51 294.98 17.80L294.98 17.80Q294.98 17.09 294.69 16.54Q294.39 16 293.87 15.70Q293.36 15.40 292.72 15.40L292.72 15.40Q292.08 15.40 291.57 15.70Q291.05 16 290.75 16.54Q290.45 17.09 290.45 17.80ZM304.45 22L302.12 22L302.12 13.60L304.07 13.60L307.78 18.07L307.78 13.60L310.11 13.60L310.11 22L308.16 22L304.45 17.52L304.45 22ZM324.57 22L322.24 22L322.24 13.60L324.20 13.60L327.91 18.07L327.91 13.60L330.23 13.60L330.23 22L328.28 22L324.57 17.52L324.57 22ZM342.14 22L335.40 22L335.40 13.60L341.99 13.60L341.99 15.44L337.75 15.44L337.75 16.85L341.48 16.85L341.48 18.63L337.75 18.63L337.75 20.17L342.14 20.17L342.14 22ZM351.49 22L346.95 22L346.95 13.60L351.25 13.60Q352.85 13.60 353.69 14.19Q354.53 14.79 354.53 15.79L354.53 15.79Q354.53 16.39 354.24 16.87Q353.94 17.34 353.40 17.62L353.40 17.62Q354.12 17.87 354.53 18.41Q354.94 18.94 354.94 19.70L354.94 19.70Q354.94 20.80 354.05 21.40Q353.16 22 351.49 22L351.49 22ZM349.30 18.58L349.30 20.28L351.29 20.28Q352.54 20.28 352.54 19.43L352.54 19.43Q352.54 18.58 351.29 18.58L351.29 18.58L349.30 18.58ZM349.30 15.31L349.30 16.94L350.93 16.94Q352.13 16.94 352.13 16.12L352.13 16.12Q352.13 15.31 350.93 15.31L350.93 15.31L349.30 15.31ZM359.58 18.26L359.58 18.26L359.58 13.60L361.96 13.60L361.96 18.19Q361.96 20.20 363.56 20.20L363.56 20.20Q365.14 20.20 365.14 18.19L365.14 18.19L365.14 13.60L367.48 13.60L367.48 18.26Q367.48 20.13 366.44 21.15Q365.40 22.17 363.53 22.17L363.53 22.17Q361.66 22.17 360.62 21.15Q359.58 20.13 359.58 18.26ZM378.96 22L372.57 22L372.57 13.60L374.95 13.60L374.95 20.11L378.96 20.11L378.96 22ZM384.79 22L382.37 22L386.07 13.60L388.42 13.60L392.13 22L389.67 22L389.00 20.37L385.45 20.37L384.79 22ZM387.23 15.93L386.14 18.61L388.31 18.61L387.23 15.93Z" fill="#8D018F" x="179.17"/></svg>